# xmcd
#
# Track frame offsets: 
#        150
#        12908
#        26335
#        37720
#        49737
#        60954
#        72231
#        84211
#        97052
#        108733
#        119884
#        131662
#        142529
#
# Disc length: 2056 seconds
#
# Revision: 0
# Processed by: cddbd v1.5.2PL0 Copyright (c) Steve Scherf et al.
# Submitted via: ExactAudioCopy v0.99pb4
#
DISCID=a308060d
DTITLE=Robert Johnson - The Complete Recordings [CD2]
DYEAR=2008
DGENRE=Blues
TTITLE0=32-20 Blues
TTITLE1=They're Red Hot
TTITLE2=Dead Shrimp Blues
TTITLE3=Cross Road Blues (take 1)
TTITLE4=Cross Road Blues (take 2)
TTITLE5=Walking Blues
TTITLE6=Last Fair Deal Gone Down
TTITLE7=Preaching Blues (Up Jumped The Devil)
TTITLE8=If I Had Possession Over Judgment Day
TTITLE9=Stones In My Passway
TTITLE10=I'm A Steady Rollin' Man
TTITLE11=From Four Till Late
TTITLE12=Hellhound On My Trail
EXTD=
EXTT0=
EXTT1=
EXTT2=
EXTT3=
EXTT4=
EXTT5=
EXTT6=
EXTT7=
EXTT8=
EXTT9=
EXTT10=
EXTT11=
EXTT12=
PLAYORDER=
